<mxfile host="app.diagrams.net" agent="Mozilla/5.0 (Windows NT 10.0; Win64; x64) AppleWebKit/537.36 (KHTML, like Gecko) Chrome/132.0.0.0 Safari/537.36" version="26.0.11">
  <diagram name="Page-1" id="13e1069c-82ec-6db2-03f1-153e76fe0fe0">
    <mxGraphModel dx="1723" dy="640" grid="1" gridSize="10" guides="1" tooltips="1" connect="1" arrows="1" fold="1" page="1" pageScale="1" pageWidth="1100" pageHeight="850" background="none" math="0" shadow="0">
      <root>
        <mxCell id="0" />
        <mxCell id="1" parent="0" />
        <mxCell id="7baba1c4bc27f4b0-8" value="Comercio" style="shape=umlLifeline;perimeter=lifelinePerimeter;whiteSpace=wrap;html=1;container=1;collapsible=0;recursiveResize=0;outlineConnect=0;rounded=1;shadow=0;comic=0;labelBackgroundColor=none;strokeWidth=1;fontFamily=Verdana;fontSize=12;align=center;" parent="1" vertex="1">
          <mxGeometry x="310" y="150" width="100" height="410" as="geometry" />
        </mxCell>
        <mxCell id="RZF_Q-gUWJOncki13DaR-1" value="Actor" style="shape=umlActor;verticalLabelPosition=bottom;verticalAlign=top;html=1;outlineConnect=0;" vertex="1" parent="1">
          <mxGeometry x="130" y="380" width="30" height="60" as="geometry" />
        </mxCell>
        <mxCell id="RZF_Q-gUWJOncki13DaR-4" value="" style="endArrow=classic;html=1;rounded=0;" edge="1" parent="1" target="7baba1c4bc27f4b0-8">
          <mxGeometry width="50" height="50" relative="1" as="geometry">
            <mxPoint x="160" y="420" as="sourcePoint" />
            <mxPoint x="320" y="430" as="targetPoint" />
          </mxGeometry>
        </mxCell>
        <mxCell id="RZF_Q-gUWJOncki13DaR-5" value="" style="endArrow=classic;html=1;rounded=0;" edge="1" parent="1">
          <mxGeometry width="50" height="50" relative="1" as="geometry">
            <mxPoint x="360" y="360" as="sourcePoint" />
            <mxPoint x="569.4999999999998" y="360" as="targetPoint" />
          </mxGeometry>
        </mxCell>
        <mxCell id="RZF_Q-gUWJOncki13DaR-6" value="Ingresa datos del comercio:&lt;div&gt;RUC, Razon social, nombre comercial, fecha creacion, pagos aceptados, número de cuenta, comisión&lt;/div&gt;" style="text;strokeColor=none;align=center;fillColor=none;html=1;verticalAlign=middle;whiteSpace=wrap;rounded=0;" vertex="1" parent="1">
          <mxGeometry x="160" y="365" width="190" height="30" as="geometry" />
        </mxCell>
        <mxCell id="RZF_Q-gUWJOncki13DaR-8" value="&lt;font style=&quot;font-size: 24px;&quot;&gt;CREAR COMERCIO&lt;/font&gt;" style="text;strokeColor=none;align=center;fillColor=none;html=1;verticalAlign=middle;whiteSpace=wrap;rounded=0;" vertex="1" parent="1">
          <mxGeometry x="20" y="60" width="340" height="90" as="geometry" />
        </mxCell>
        <mxCell id="RZF_Q-gUWJOncki13DaR-9" value="Database" style="shape=cylinder3;whiteSpace=wrap;html=1;boundedLbl=1;backgroundOutline=1;size=15;" vertex="1" parent="1">
          <mxGeometry x="580" y="330" width="90" height="125" as="geometry" />
        </mxCell>
        <mxCell id="RZF_Q-gUWJOncki13DaR-10" value="" style="endArrow=classic;html=1;rounded=0;exitX=0;exitY=1;exitDx=0;exitDy=-15;exitPerimeter=0;" edge="1" parent="1" source="RZF_Q-gUWJOncki13DaR-9" target="7baba1c4bc27f4b0-8">
          <mxGeometry width="50" height="50" relative="1" as="geometry">
            <mxPoint x="520.75" y="438.75" as="sourcePoint" />
            <mxPoint x="370" y="439" as="targetPoint" />
          </mxGeometry>
        </mxCell>
        <mxCell id="RZF_Q-gUWJOncki13DaR-11" value="No deja crear un comercio si algún campo no pasa las validaciones" style="text;strokeColor=none;align=center;fillColor=none;html=1;verticalAlign=middle;whiteSpace=wrap;rounded=0;" vertex="1" parent="1">
          <mxGeometry x="380" y="410" width="190" height="30" as="geometry" />
        </mxCell>
        <mxCell id="RZF_Q-gUWJOncki13DaR-12" value="&lt;font style=&quot;font-size: 24px;&quot;&gt;ACTUALIZAR COMERCIO&lt;/font&gt;" style="text;strokeColor=none;align=center;fillColor=none;html=1;verticalAlign=middle;whiteSpace=wrap;rounded=0;" vertex="1" parent="1">
          <mxGeometry x="70" y="630" width="340" height="90" as="geometry" />
        </mxCell>
        <mxCell id="RZF_Q-gUWJOncki13DaR-21" value="Comercio" style="shape=umlLifeline;perimeter=lifelinePerimeter;whiteSpace=wrap;html=1;container=1;collapsible=0;recursiveResize=0;outlineConnect=0;rounded=1;shadow=0;comic=0;labelBackgroundColor=none;strokeWidth=1;fontFamily=Verdana;fontSize=12;align=center;" vertex="1" parent="1">
          <mxGeometry x="320" y="750" width="100" height="410" as="geometry" />
        </mxCell>
        <mxCell id="RZF_Q-gUWJOncki13DaR-22" value="Actor" style="shape=umlActor;verticalLabelPosition=bottom;verticalAlign=top;html=1;outlineConnect=0;" vertex="1" parent="1">
          <mxGeometry x="140" y="980" width="30" height="60" as="geometry" />
        </mxCell>
        <mxCell id="RZF_Q-gUWJOncki13DaR-23" value="" style="endArrow=classic;html=1;rounded=0;" edge="1" parent="1" target="RZF_Q-gUWJOncki13DaR-21">
          <mxGeometry width="50" height="50" relative="1" as="geometry">
            <mxPoint x="170" y="1020" as="sourcePoint" />
            <mxPoint x="330" y="1030" as="targetPoint" />
          </mxGeometry>
        </mxCell>
        <mxCell id="RZF_Q-gUWJOncki13DaR-24" value="" style="endArrow=classic;html=1;rounded=0;" edge="1" parent="1">
          <mxGeometry width="50" height="50" relative="1" as="geometry">
            <mxPoint x="370" y="910" as="sourcePoint" />
            <mxPoint x="599.5000000000002" y="910" as="targetPoint" />
          </mxGeometry>
        </mxCell>
        <mxCell id="RZF_Q-gUWJOncki13DaR-25" value="Actualiza campo:&lt;div&gt;Estado&lt;/div&gt;" style="text;strokeColor=none;align=center;fillColor=none;html=1;verticalAlign=middle;whiteSpace=wrap;rounded=0;" vertex="1" parent="1">
          <mxGeometry x="170" y="980" width="190" height="30" as="geometry" />
        </mxCell>
        <mxCell id="RZF_Q-gUWJOncki13DaR-26" value="Database" style="shape=cylinder3;whiteSpace=wrap;html=1;boundedLbl=1;backgroundOutline=1;size=15;" vertex="1" parent="1">
          <mxGeometry x="1070" y="960" width="90" height="125" as="geometry" />
        </mxCell>
        <mxCell id="RZF_Q-gUWJOncki13DaR-30" value="&lt;div style=&quot;forced-color-adjust: none; color: rgb(0, 0, 0); font-family: Helvetica; font-size: 12px; font-style: normal; font-variant-ligatures: normal; font-variant-caps: normal; font-weight: 400; letter-spacing: normal; orphans: 2; text-align: center; text-indent: 0px; text-transform: none; widows: 2; word-spacing: 0px; -webkit-text-stroke-width: 0px; white-space: normal; background-color: rgb(251, 251, 251); text-decoration-thickness: initial; text-decoration-style: initial; text-decoration-color: initial;&quot;&gt;RUC, Razon social, nombre comercial, fecha creacion, pagos aceptados, número de cuenta, comisión&lt;/div&gt;" style="text;whiteSpace=wrap;html=1;" vertex="1" parent="1">
          <mxGeometry x="370" y="295" width="210" height="70" as="geometry" />
        </mxCell>
        <mxCell id="RZF_Q-gUWJOncki13DaR-31" value="&lt;span style=&quot;background-color: transparent; color: light-dark(rgb(0, 0, 0), rgb(255, 255, 255));&quot;&gt;Estado: Activo&lt;/span&gt;" style="text;strokeColor=none;align=center;fillColor=none;html=1;verticalAlign=middle;whiteSpace=wrap;rounded=0;" vertex="1" parent="1">
          <mxGeometry x="380" y="880" width="190" height="30" as="geometry" />
        </mxCell>
        <mxCell id="RZF_Q-gUWJOncki13DaR-32" value="POS Comercio" style="shape=umlLifeline;perimeter=lifelinePerimeter;whiteSpace=wrap;html=1;container=1;collapsible=0;recursiveResize=0;outlineConnect=0;rounded=1;shadow=0;comic=0;labelBackgroundColor=none;strokeWidth=1;fontFamily=Verdana;fontSize=12;align=center;" vertex="1" parent="1">
          <mxGeometry x="550" y="740" width="100" height="420" as="geometry" />
        </mxCell>
        <mxCell id="RZF_Q-gUWJOncki13DaR-39" value="" style="endArrow=classic;html=1;rounded=0;" edge="1" parent="RZF_Q-gUWJOncki13DaR-32">
          <mxGeometry width="50" height="50" relative="1" as="geometry">
            <mxPoint x="-174.85428571428554" y="210" as="sourcePoint" />
            <mxPoint x="274.86000000000024" y="210" as="targetPoint" />
          </mxGeometry>
        </mxCell>
        <mxCell id="RZF_Q-gUWJOncki13DaR-28" value="No deja actualizar si el estado es el mismo" style="text;strokeColor=none;align=center;fillColor=none;html=1;verticalAlign=middle;whiteSpace=wrap;rounded=0;" vertex="1" parent="1">
          <mxGeometry x="380" y="1040" width="210" height="30" as="geometry" />
        </mxCell>
        <mxCell id="RZF_Q-gUWJOncki13DaR-35" value="" style="endArrow=classic;html=1;rounded=0;exitX=0;exitY=1;exitDx=0;exitDy=-15;exitPerimeter=0;" edge="1" parent="1" source="RZF_Q-gUWJOncki13DaR-26" target="RZF_Q-gUWJOncki13DaR-21">
          <mxGeometry width="50" height="50" relative="1" as="geometry">
            <mxPoint x="600" y="1080" as="sourcePoint" />
            <mxPoint x="650" y="1030" as="targetPoint" />
          </mxGeometry>
        </mxCell>
        <mxCell id="RZF_Q-gUWJOncki13DaR-36" value="Facturacion Comercio" style="shape=umlLifeline;perimeter=lifelinePerimeter;whiteSpace=wrap;html=1;container=1;collapsible=0;recursiveResize=0;outlineConnect=0;rounded=1;shadow=0;comic=0;labelBackgroundColor=none;strokeWidth=1;fontFamily=Verdana;fontSize=12;align=center;" vertex="1" parent="1">
          <mxGeometry x="770" y="740" width="100" height="420" as="geometry" />
        </mxCell>
        <mxCell id="RZF_Q-gUWJOncki13DaR-38" value="Crea la factura del comercio" style="text;strokeColor=none;align=center;fillColor=none;html=1;verticalAlign=middle;whiteSpace=wrap;rounded=0;" vertex="1" parent="1">
          <mxGeometry x="620" y="920" width="190" height="30" as="geometry" />
        </mxCell>
        <mxCell id="RZF_Q-gUWJOncki13DaR-40" value="" style="endArrow=classic;html=1;rounded=0;entryX=0.014;entryY=0.57;entryDx=0;entryDy=0;entryPerimeter=0;" edge="1" parent="1" source="RZF_Q-gUWJOncki13DaR-32" target="RZF_Q-gUWJOncki13DaR-26">
          <mxGeometry width="50" height="50" relative="1" as="geometry">
            <mxPoint x="740" y="870" as="sourcePoint" />
            <mxPoint x="790" y="820" as="targetPoint" />
          </mxGeometry>
        </mxCell>
        <mxCell id="RZF_Q-gUWJOncki13DaR-41" value="" style="endArrow=classic;html=1;rounded=0;entryX=-0.028;entryY=0.39;entryDx=0;entryDy=0;entryPerimeter=0;" edge="1" parent="1">
          <mxGeometry width="50" height="50" relative="1" as="geometry">
            <mxPoint x="821.77" y="1000" as="sourcePoint" />
            <mxPoint x="1069.9999999999995" y="1000" as="targetPoint" />
          </mxGeometry>
        </mxCell>
        <mxCell id="RZF_Q-gUWJOncki13DaR-42" value="Guarda factura" style="edgeLabel;html=1;align=center;verticalAlign=middle;resizable=0;points=[];" vertex="1" connectable="0" parent="RZF_Q-gUWJOncki13DaR-41">
          <mxGeometry x="0.3252" y="4" relative="1" as="geometry">
            <mxPoint x="23" y="-6" as="offset" />
          </mxGeometry>
        </mxCell>
        <mxCell id="RZF_Q-gUWJOncki13DaR-43" value="Actualiza el estado del POS" style="edgeLabel;html=1;align=center;verticalAlign=middle;resizable=0;points=[];" vertex="1" connectable="0" parent="1">
          <mxGeometry x="910" y="1022.5" as="geometry" />
        </mxCell>
        <mxCell id="RZF_Q-gUWJOncki13DaR-62" value="&lt;font style=&quot;font-size: 24px;&quot;&gt;VISUALIZAR COMERCIO&lt;/font&gt;" style="text;strokeColor=none;align=center;fillColor=none;html=1;verticalAlign=middle;whiteSpace=wrap;rounded=0;" vertex="1" parent="1">
          <mxGeometry x="85" y="1220" width="340" height="90" as="geometry" />
        </mxCell>
        <mxCell id="RZF_Q-gUWJOncki13DaR-63" value="Front-End" style="shape=umlLifeline;perimeter=lifelinePerimeter;whiteSpace=wrap;html=1;container=1;collapsible=0;recursiveResize=0;outlineConnect=0;rounded=1;shadow=0;comic=0;labelBackgroundColor=none;strokeWidth=1;fontFamily=Verdana;fontSize=12;align=center;" vertex="1" parent="1">
          <mxGeometry x="310" y="1380" width="100" height="410" as="geometry" />
        </mxCell>
        <mxCell id="RZF_Q-gUWJOncki13DaR-64" value="Actor" style="shape=umlActor;verticalLabelPosition=bottom;verticalAlign=top;html=1;outlineConnect=0;" vertex="1" parent="1">
          <mxGeometry x="130" y="1610" width="30" height="60" as="geometry" />
        </mxCell>
        <mxCell id="RZF_Q-gUWJOncki13DaR-65" value="" style="endArrow=classic;html=1;rounded=0;" edge="1" parent="1" target="RZF_Q-gUWJOncki13DaR-63">
          <mxGeometry width="50" height="50" relative="1" as="geometry">
            <mxPoint x="160" y="1650" as="sourcePoint" />
            <mxPoint x="320" y="1660" as="targetPoint" />
          </mxGeometry>
        </mxCell>
        <mxCell id="RZF_Q-gUWJOncki13DaR-67" value="Petición para visualizar" style="text;strokeColor=none;align=center;fillColor=none;html=1;verticalAlign=middle;whiteSpace=wrap;rounded=0;" vertex="1" parent="1">
          <mxGeometry x="160" y="1610" width="190" height="30" as="geometry" />
        </mxCell>
        <mxCell id="RZF_Q-gUWJOncki13DaR-68" value="Database" style="shape=cylinder3;whiteSpace=wrap;html=1;boundedLbl=1;backgroundOutline=1;size=15;" vertex="1" parent="1">
          <mxGeometry x="810" y="1590" width="110" height="140" as="geometry" />
        </mxCell>
        <mxCell id="RZF_Q-gUWJOncki13DaR-80" value="Comercio" style="shape=umlLifeline;perimeter=lifelinePerimeter;whiteSpace=wrap;html=1;container=1;collapsible=0;recursiveResize=0;outlineConnect=0;rounded=1;shadow=0;comic=0;labelBackgroundColor=none;strokeWidth=1;fontFamily=Verdana;fontSize=12;align=center;" vertex="1" parent="1">
          <mxGeometry x="550" y="1380" width="100" height="420" as="geometry" />
        </mxCell>
        <mxCell id="RZF_Q-gUWJOncki13DaR-83" value="" style="endArrow=classic;html=1;rounded=0;" edge="1" parent="1" source="RZF_Q-gUWJOncki13DaR-63" target="RZF_Q-gUWJOncki13DaR-80">
          <mxGeometry width="50" height="50" relative="1" as="geometry">
            <mxPoint x="230" y="1620" as="sourcePoint" />
            <mxPoint x="280" y="1570" as="targetPoint" />
          </mxGeometry>
        </mxCell>
        <mxCell id="RZF_Q-gUWJOncki13DaR-84" value="Petición por el Endpoint" style="text;strokeColor=none;align=center;fillColor=none;html=1;verticalAlign=middle;whiteSpace=wrap;rounded=0;" vertex="1" parent="1">
          <mxGeometry x="390" y="1550" width="190" height="30" as="geometry" />
        </mxCell>
        <mxCell id="RZF_Q-gUWJOncki13DaR-85" value="" style="endArrow=classic;html=1;rounded=0;entryX=0;entryY=0.5;entryDx=0;entryDy=0;entryPerimeter=0;" edge="1" parent="1">
          <mxGeometry width="50" height="50" relative="1" as="geometry">
            <mxPoint x="598.8333333333335" y="1630" as="sourcePoint" />
            <mxPoint x="810" y="1630" as="targetPoint" />
          </mxGeometry>
        </mxCell>
        <mxCell id="RZF_Q-gUWJOncki13DaR-86" value="Ejecución de la consulta SQL" style="text;strokeColor=none;align=center;fillColor=none;html=1;verticalAlign=middle;whiteSpace=wrap;rounded=0;" vertex="1" parent="1">
          <mxGeometry x="600" y="1600" width="190" height="30" as="geometry" />
        </mxCell>
        <mxCell id="RZF_Q-gUWJOncki13DaR-87" value="" style="endArrow=classic;html=1;rounded=0;exitX=-0.004;exitY=0.783;exitDx=0;exitDy=0;exitPerimeter=0;" edge="1" parent="1" source="RZF_Q-gUWJOncki13DaR-68" target="RZF_Q-gUWJOncki13DaR-63">
          <mxGeometry width="50" height="50" relative="1" as="geometry">
            <mxPoint x="640" y="1740" as="sourcePoint" />
            <mxPoint x="690" y="1690" as="targetPoint" />
          </mxGeometry>
        </mxCell>
        <mxCell id="RZF_Q-gUWJOncki13DaR-88" value="Envío de los datos para visualización" style="text;strokeColor=none;align=center;fillColor=none;html=1;verticalAlign=middle;whiteSpace=wrap;rounded=0;" vertex="1" parent="1">
          <mxGeometry x="390" y="1660" width="190" height="30" as="geometry" />
        </mxCell>
      </root>
    </mxGraphModel>
  </diagram>
</mxfile>
